<svg xmlns="http://www.w3.org/2000/svg" viewBox="0 0 900 280" width="900" height="280">
  <defs>
    <radialGradient id="spaceGrad" cx="50%" cy="50%" r="75%">
      <stop offset="0%"   stop-color="#0a0e1a"/>
      <stop offset="60%"  stop-color="#050810"/>
      <stop offset="100%" stop-color="#000005"/>
    </radialGradient>
    <radialGradient id="nebula1" cx="20%" cy="40%" r="40%">
      <stop offset="0%"  stop-color="#0ff4c6" stop-opacity="0.08"/>
      <stop offset="100%" stop-color="#0ff4c6" stop-opacity="0"/>
    </radialGradient>
    <radialGradient id="nebula2" cx="80%" cy="60%" r="45%">
      <stop offset="0%"  stop-color="#9b59ff" stop-opacity="0.1"/>
      <stop offset="100%" stop-color="#9b59ff" stop-opacity="0"/>
    </radialGradient>
    <radialGradient id="blackhole" cx="50%" cy="50%" r="50%">
      <stop offset="0%"   stop-color="#000000"/>
      <stop offset="55%"  stop-color="#0a0010"/>
      <stop offset="75%"  stop-color="#9b59ff" stop-opacity="0.25"/>
      <stop offset="90%"  stop-color="#0ff4c6" stop-opacity="0.12"/>
      <stop offset="100%" stop-color="transparent"/>
    </radialGradient>
    <filter id="starGlow" x="-50%" y="-50%" width="200%" height="200%">
      <feGaussianBlur stdDeviation="1.2" result="blur"/>
      <feMerge><feMergeNode in="blur"/><feMergeNode in="SourceGraphic"/></feMerge>
    </filter>
    <filter id="nodeGlow">
      <feGaussianBlur stdDeviation="2.5" result="blur"/>
      <feMerge><feMergeNode in="blur"/><feMergeNode in="blur"/><feMergeNode in="SourceGraphic"/></feMerge>
    </filter>
    <filter id="textGlow">
      <feGaussianBlur stdDeviation="4" result="blur"/>
      <feMerge><feMergeNode in="blur"/><feMergeNode in="SourceGraphic"/></feMerge>
    </filter>
    <linearGradient id="accretion" x1="0%" y1="0%" x2="100%" y2="0%">
      <stop offset="0%"   stop-color="#0ff4c6" stop-opacity="0"/>
      <stop offset="30%"  stop-color="#0ff4c6" stop-opacity="0.6"/>
      <stop offset="50%"  stop-color="#ffffff" stop-opacity="0.9"/>
      <stop offset="70%"  stop-color="#9b59ff" stop-opacity="0.6"/>
      <stop offset="100%" stop-color="#9b59ff" stop-opacity="0"/>
    </linearGradient>
    <linearGradient id="accretion2" x1="0%" y1="0%" x2="100%" y2="0%">
      <stop offset="0%"   stop-color="#9b59ff" stop-opacity="0"/>
      <stop offset="35%"  stop-color="#9b59ff" stop-opacity="0.4"/>
      <stop offset="50%"  stop-color="#0ff4c6" stop-opacity="0.7"/>
      <stop offset="65%"  stop-color="#9b59ff" stop-opacity="0.4"/>
      <stop offset="100%" stop-color="#9b59ff" stop-opacity="0"/>
    </linearGradient>
  </defs>

  <!-- BACKGROUND -->
  <rect width="900" height="280" fill="url(#spaceGrad)"/>
  <rect width="900" height="280" fill="url(#nebula1)"/>
  <rect width="900" height="280" fill="url(#nebula2)"/>

  <!-- STAR FIELD -->
  <g fill="white" filter="url(#starGlow)">
    <circle cx="45"  cy="18"  r="0.7" opacity="0.5"/>
    <circle cx="120" cy="42"  r="0.5" opacity="0.4"/>
    <circle cx="200" cy="12"  r="0.8" opacity="0.6"/>
    <circle cx="310" cy="55"  r="0.5" opacity="0.5"/>
    <circle cx="430" cy="22"  r="0.6" opacity="0.7"/>
    <circle cx="560" cy="38"  r="0.5" opacity="0.4"/>
    <circle cx="650" cy="15"  r="0.8" opacity="0.6"/>
    <circle cx="780" cy="48"  r="0.6" opacity="0.5"/>
    <circle cx="860" cy="20"  r="0.5" opacity="0.7"/>
    <circle cx="75"  cy="80"  r="0.6" opacity="0.5"/>
    <circle cx="160" cy="95"  r="0.5" opacity="0.3"/>
    <circle cx="250" cy="72"  r="0.8" opacity="0.6"/>
    <circle cx="370" cy="88"  r="0.5" opacity="0.4"/>
    <circle cx="480" cy="65"  r="0.7" opacity="0.5"/>
    <circle cx="590" cy="90"  r="0.5" opacity="0.6"/>
    <circle cx="700" cy="70"  r="0.8" opacity="0.5"/>
    <circle cx="820" cy="85"  r="0.6" opacity="0.4"/>
    <circle cx="880" cy="75"  r="0.5" opacity="0.6"/>
    <circle cx="30"  cy="140" r="0.6" opacity="0.4"/>
    <circle cx="140" cy="155" r="0.5" opacity="0.5"/>
    <circle cx="220" cy="175" r="0.7" opacity="0.6"/>
    <circle cx="340" cy="160" r="0.5" opacity="0.4"/>
    <circle cx="840" cy="145" r="0.6" opacity="0.5"/>
    <circle cx="870" cy="170" r="0.5" opacity="0.4"/>
    <circle cx="50"  cy="220" r="0.6" opacity="0.5"/>
    <circle cx="160" cy="235" r="0.5" opacity="0.6"/>
    <circle cx="280" cy="245" r="0.7" opacity="0.4"/>
    <circle cx="400" cy="258" r="0.5" opacity="0.5"/>
    <circle cx="680" cy="248" r="0.6" opacity="0.6"/>
    <circle cx="800" cy="230" r="0.5" opacity="0.5"/>
    <circle cx="880" cy="255" r="0.6" opacity="0.4"/>
    <circle cx="90"  cy="32"  r="1.2" opacity="0.8"/>
    <circle cx="490" cy="50"  r="1.0" opacity="0.7"/>
    <circle cx="730" cy="28"  r="1.3" opacity="0.9"/>
    <circle cx="170" cy="200" r="1.1" opacity="0.7"/>
    <circle cx="810" cy="195" r="1.2" opacity="0.8"/>
    <circle cx="350" cy="230" r="1.0" opacity="0.6"/>
    <circle cx="520" cy="215" r="0.9" opacity="0.7"/>
    <circle cx="620" cy="185" r="0.7" opacity="0.5"/>
    <circle cx="22"  cy="260" r="0.8" opacity="0.5"/>
    <circle cx="450" cy="270" r="0.6" opacity="0.4"/>
  </g>

  <!-- CONSTELLATION — Orion-like (left) -->
  <g stroke="#0ff4c6" stroke-width="0.6" opacity="0.35">
    <line x1="78"  y1="118" x2="95"  y2="140"/>
    <line x1="95"  y1="140" x2="115" y2="130"/>
    <line x1="115" y1="130" x2="130" y2="155"/>
    <line x1="95"  y1="140" x2="80"  y2="162"/>
    <line x1="78"  y1="118" x2="62"  y2="105"/>
    <line x1="115" y1="130" x2="125" y2="110"/>
  </g>
  <g fill="#0ff4c6" filter="url(#nodeGlow)">
    <circle cx="78"  cy="118" r="1.8" opacity="0.9"/>
    <circle cx="95"  cy="140" r="2.2" opacity="1.0"/>
    <circle cx="115" cy="130" r="1.6" opacity="0.8"/>
    <circle cx="130" cy="155" r="1.4" opacity="0.7"/>
    <circle cx="80"  cy="162" r="1.4" opacity="0.7"/>
    <circle cx="62"  cy="105" r="1.6" opacity="0.8"/>
    <circle cx="125" cy="110" r="1.8" opacity="0.9"/>
  </g>

  <!-- CONSTELLATION — Cassiopeia-like (top right) -->
  <g stroke="#9b59ff" stroke-width="0.6" opacity="0.30">
    <line x1="720" y1="40"  x2="745" y2="58"/>
    <line x1="745" y1="58"  x2="768" y2="44"/>
    <line x1="768" y1="44"  x2="792" y2="62"/>
    <line x1="792" y1="62"  x2="815" y2="46"/>
  </g>
  <g fill="#9b59ff" filter="url(#nodeGlow)">
    <circle cx="720" cy="40"  r="1.6" opacity="0.9"/>
    <circle cx="745" cy="58"  r="2.0" opacity="1.0"/>
    <circle cx="768" cy="44"  r="1.8" opacity="0.9"/>
    <circle cx="792" cy="62"  r="2.0" opacity="1.0"/>
    <circle cx="815" cy="46"  r="1.6" opacity="0.9"/>
  </g>

  <!-- CONSTELLATION — triangle (bottom right) -->
  <g stroke="#0ff4c6" stroke-width="0.5" opacity="0.25">
    <line x1="780" y1="210" x2="810" y2="235"/>
    <line x1="810" y1="235" x2="755" y2="240"/>
    <line x1="755" y1="240" x2="780" y2="210"/>
  </g>
  <g fill="#0ff4c6" filter="url(#nodeGlow)" opacity="0.7">
    <circle cx="780" cy="210" r="1.5"/>
    <circle cx="810" cy="235" r="1.5"/>
    <circle cx="755" cy="240" r="1.5"/>
  </g>

  <!-- BLACK HOLE accretion rings -->
  <ellipse cx="760" cy="162" rx="68" ry="14" fill="none" stroke="url(#accretion)"  stroke-width="3" opacity="0.6"/>
  <ellipse cx="760" cy="162" rx="55" ry="10" fill="none" stroke="url(#accretion2)" stroke-width="2" opacity="0.5"/>
  <ellipse cx="760" cy="162" rx="44" ry="7"  fill="none" stroke="url(#accretion)"  stroke-width="1.5" opacity="0.4"/>
  <!-- Event horizon shadow -->
  <ellipse cx="760" cy="162" rx="36" ry="36" fill="url(#blackhole)"/>
  <!-- True event horizon -->
  <circle  cx="760" cy="162" r="22" fill="#000000"/>
  <circle  cx="760" cy="162" r="22" fill="none" stroke="#9b59ff" stroke-width="1" opacity="0.3"/>

  <!-- MAIN TEXT: Name -->
  <text
    x="420" y="118"
    text-anchor="middle"
    font-family="Georgia, 'Times New Roman', serif"
    font-size="52"
    font-weight="400"
    letter-spacing="6"
    fill="white"
    filter="url(#textGlow)"
    opacity="0.95"
  >ANIK PAUL</text>

  <!-- Divider -->
  <line x1="220" y1="132" x2="620" y2="132" stroke="white" stroke-width="0.4" opacity="0.25"/>

  <!-- Subtitle -->
  <text
    x="420" y="157"
    text-anchor="middle"
    font-family="'Courier New', Courier, monospace"
    font-size="12"
    letter-spacing="4"
    fill="#0ff4c6"
    opacity="0.85"
  >FRONT-END DEVELOPER  ·  REACT  ·  NEXT.JS</text>

  <!-- Tagline -->
  <text
    x="420" y="195"
    text-anchor="middle"
    font-family="Georgia, serif"
    font-size="13"
    font-style="italic"
    letter-spacing="1"
    fill="white"
    opacity="0.4"
  >crafting interfaces that feel like they belong to the future</text>

  <!-- Bottom micro text -->
  <text
    x="420" y="252"
    text-anchor="middle"
    font-family="'Courier New', Courier, monospace"
    font-size="10"
    letter-spacing="3"
    fill="#9b59ff"
    opacity="0.5"
  >// exploring the universe, one component at a time</text>
</svg>
